<?xml version="1.0" encoding="UTF-8" standalone="no"?>
<svg
   width="1600"
   height="480"
   viewBox="0 0 1600 480"
   role="img"
   aria-labelledby="title description"
   version="1.1"
   id="svg64"
   sodipodi:docname="banner.svg"
   inkscape:version="1.4.4 (dcaf3e7d9e, 2026-05-05)"
   xmlns:inkscape="http://www.inkscape.org/namespaces/inkscape"
   xmlns:sodipodi="http://sodipodi.sourceforge.net/DTD/sodipodi-0.dtd"
   xmlns="http://www.w3.org/2000/svg"
   xmlns:svg="http://www.w3.org/2000/svg"
   xmlns:rdf="http://www.w3.org/1999/02/22-rdf-syntax-ns#"
   xmlns:cc="http://creativecommons.org/ns#"
   xmlns:dc="http://purl.org/dc/elements/1.1/">
  <sodipodi:namedview
     id="namedview64"
     pagecolor="#ffffff"
     bordercolor="#000000"
     borderopacity="0.25"
     inkscape:showpageshadow="2"
     inkscape:pageopacity="0.0"
     inkscape:pagecheckerboard="0"
     inkscape:deskcolor="#d1d1d1"
     inkscape:zoom="0.8905494"
     inkscape:cx="772.5568"
     inkscape:cy="204.36822"
     inkscape:window-width="1920"
     inkscape:window-height="1135"
     inkscape:window-x="0"
     inkscape:window-y="0"
     inkscape:window-maximized="1"
     inkscape:current-layer="g63" />
  <title
     id="title">Diamond Ratings</title>
  <desc
     id="description">Baseball analytics, built from the pitch up. Cream lettering on a midnight green baseball field with a large illustrated baseball, red stitching, and mint diamond details.</desc>
  <defs
     id="defs5">
    <linearGradient
       id="background"
       x2="1"
       y2=".6">
      <stop
         stop-color="#0b1721"
         id="stop1" />
      <stop
         offset="1"
         stop-color="#143c36"
         id="stop2" />
    </linearGradient>
    <radialGradient
       id="leather"
       cx=".33"
       cy=".25"
       r=".85">
      <stop
         stop-color="#fffef2"
         id="stop3" />
      <stop
         offset=".65"
         stop-color="#f1edda"
         id="stop4" />
      <stop
         offset="1"
         stop-color="#d3d7be"
         id="stop5" />
    </radialGradient>
    <pattern
       id="grid"
       width="48"
       height="48"
       patternUnits="userSpaceOnUse"
       inkscape:label="grid">
      <path
         d="M48 0H0V48"
         fill="none"
         stroke="#97c7ad"
         stroke-opacity=".055"
         id="path5" />
    </pattern>
    <clipPath
       id="bounds">
      <rect
         width="1600"
         height="480"
         rx="20"
         id="rect5" />
    </clipPath>
    <clipPath
       id="ball">
      <circle
         r="184"
         id="circle5" />
    </clipPath>
  </defs>
  <g
     clip-path="url(#bounds)"
     id="g64">
    <rect
       width="1600"
       height="480"
       fill="url(#background)"
       id="rect6" />
    <ellipse
       style="fill:#c87137;fill-rule:evenodd;stroke-width:1.0651"
       id="path69"
       ry="40.012245"
       rx="140.20927"
       cy="856.81232"
       cx="766.92267"
       transform="matrix(0.78364725,-0.62120607,0.48855317,0.87253413,0,0)" />
    <rect
       width="1600"
       height="480"
       fill="url(#grid)"
       id="rect7"
       clip-path="none" />
    <rect
       style="fill:#c87137;fill-rule:evenodd;stroke-width:0.741133"
       id="rect68-5"
       width="41.725719"
       height="199.265"
       x="-438.36954"
       y="860.43555"
       transform="matrix(-0.77998079,0.62580346,0.70479106,0.70941494,0,0)" />
    <!-- Outfield geometry gives the background the shape of a ballpark. -->
    <g
       fill="none"
       stroke="#91cda5"
       stroke-width="2"
       id="g10">
      <path
         d="M1150 598 721 169 Q1150 -250 1579 169Z"
         stroke-opacity=".15"
         id="path7" />
      <path
         d="M1150 598 787 235 Q1150 -126 1513 235"
         stroke-opacity=".13"
         id="path8" />
      <path
         d="M1150 598 851 299 Q1150 6 1449 299"
         stroke-opacity=".10"
         id="path9" />
    </g>
    <!-- Small home plate mark. -->
    <rect
       style="fill:#c87137;fill-rule:evenodd;stroke-width:1.4341"
       id="rect69"
       width="265.00494"
       height="53.899315"
       x="512.33331"
       y="841.75342"
       ry="3.1705477"
       transform="rotate(-37.819465)" />
    <path
       d="M86 62H118V85L102 97 86 85Z"
       fill="#a4e5b5"
       id="path12"
       style="fill:#c5c5c5;fill-opacity:1" />
    <text
       x="139"
       y="86"
       fill="#a4e5b5"
       font-family="Arial, Helvetica, sans-serif"
       font-size="22"
       font-weight="700"
       letter-spacing="5"
       id="text12"
       style="fill:#c5c5c5;fill-opacity:1">BASEBALL ANALYTICS</text>
    <rect
       style="fill:#c87137;fill-rule:evenodd;stroke-width:0.786622"
       id="rect68"
       width="44.23439"
       height="211.74644"
       x="1203.8411"
       y="-544.67212"
       transform="matrix(0.77345575,0.63385031,-0.69724122,0.71683658,0,0)" />
    <ellipse
       style="fill:#c87137;fill-rule:evenodd;stroke-width:0.854805"
       id="path64"
       cx="1133.5699"
       cy="346.97684"
       rx="46.600445"
       ry="49.407703" />
    <text
       x="81"
       y="211"
       fill="#f8f4e5"
       font-family="Arial, Helvetica, sans-serif"
       font-size="110"
       font-weight="800"
       letter-spacing="-4"
       id="text13">DIAMOND</text>
    <text
       x="81"
       y="321"
       fill="#f8f4e5"
       font-family="Arial, Helvetica, sans-serif"
       font-size="110"
       font-weight="800"
       letter-spacing="-4"
       id="text14">RATINGS</text>
    <!-- Decorative pitch trail; no statistical data is implied. -->
    <g
       transform="translate(1280 235) rotate(22)"
       id="g63">
      <circle
         cx="12"
         cy="18"
         r="190"
         fill="#071c1c"
         opacity=".36"
         id="circle19" />
      <circle
         r="204"
         fill="none"
         stroke="#a4e5b5"
         stroke-opacity=".23"
         id="circle20" />
      <circle
         r="215"
         fill="none"
         stroke="#a4e5b5"
         stroke-opacity=".10"
         stroke-dasharray="3 12"
         id="circle21" />
      <path
         style="fill:none;stroke:#ffffff;stroke-width:3.9;stroke-linecap:butt;stroke-linejoin:miter;stroke-opacity:1;opacity:0.6;stroke-dasharray:none"
         d="m 1221.7177,483.9709 c 332.3791,-337.9936 332.3791,-337.9936 332.3791,-337.9936 v 0 h 2.2458"
         id="path80"
         transform="rotate(-22,35.514903,3410.0146)" />
      <circle
         r="184"
         fill="url(#leather)"
         id="circle22" />
      <g
         clip-path="url(#ball)"
         id="g62">
        <g
           fill="none"
           stroke="#b44040"
           stroke-width="2"
           opacity=".6"
           id="g23">
          <path
             d="M-112-160C-15-65-15 65-112 160"
             id="path22" />
          <path
             d="M112-160C15-65 15 65 112 160"
             id="path23" />
        </g>
        <g
           fill="none"
           stroke="#ba4545"
           stroke-width="3.5"
           stroke-linecap="round"
           stroke-linejoin="round"
           id="g61">
          <path
             d="M-109.60 -143.25 L-99.49 -146.97 L-94.74 -156.63"
             id="path24" />
          <path
             d="M-97.20 -128.90 L-86.85 -131.87 L-81.41 -141.16"
             id="path25" />
          <path
             d="M-86.24 -114.15 L-75.69 -116.34 L-69.56 -125.19"
             id="path26" />
          <path
             d="M-76.71 -99.07 L-66.03 -100.42 L-59.22 -108.77"
             id="path27" />
          <path
             d="M-68.60 -83.69 L-57.84 -84.18 L-50.39 -91.96"
             id="path28" />
          <path
             d="M-61.91 -68.07 L-51.15 -67.67 L-43.08 -74.81"
             id="path29" />
          <path
             d="M-56.64 -52.24 L-45.94 -50.94 L-37.30 -57.37"
             id="path30" />
          <path
             d="M-52.77 -36.26 L-42.23 -34.05 L-33.07 -39.72"
             id="path31" />
          <path
             d="M-50.30 -20.17 L-39.99 -17.05 L-30.38 -21.91"
             id="path32" />
          <path
             d="M-49.25 -4.00 L-39.25 -0.00 L-29.25 -4.00"
             id="path33" />
          <path
             d="M-49.61 12.20 L-39.99 17.05 L-29.68 13.94"
             id="path34" />
          <path
             d="M-51.38 28.38 L-42.23 34.05 L-31.68 31.84"
             id="path35" />
          <path
             d="M-54.58 44.51 L-45.94 50.94 L-35.25 49.64"
             id="path36" />
          <path
             d="M-59.22 60.54 L-51.15 67.67 L-40.39 67.27"
             id="path37" />
          <path
             d="M-65.30 76.41 L-57.84 84.18 L-47.08 84.67"
             id="path38" />
          <path
             d="M-72.83 92.07 L-66.03 100.42 L-55.34 101.78"
             id="path39" />
          <path
             d="M-81.83 107.48 L-75.69 116.34 L-65.15 118.52"
             id="path40" />
          <path
             d="M-92.30 122.58 L-86.85 131.87 L-76.50 134.84"
             id="path41" />
          <path
             d="M-104.25 137.30 L-99.49 146.97 L-89.39 150.69"
             id="path42" />
          <path
             d="M94.74 -156.63 L99.49 -146.97 L109.60 -143.25"
             id="path43" />
          <path
             d="M81.41 -141.16 L86.85 -131.87 L97.20 -128.90"
             id="path44" />
          <path
             d="M69.56 -125.19 L75.69 -116.34 L86.24 -114.15"
             id="path45" />
          <path
             d="M59.22 -108.77 L66.03 -100.42 L76.71 -99.07"
             id="path46" />
          <path
             d="M50.39 -91.96 L57.84 -84.18 L68.60 -83.69"
             id="path47" />
          <path
             d="M43.08 -74.81 L51.15 -67.67 L61.91 -68.07"
             id="path48" />
          <path
             d="M37.30 -57.37 L45.94 -50.94 L56.64 -52.24"
             id="path49" />
          <path
             d="M33.07 -39.72 L42.23 -34.05 L52.77 -36.26"
             id="path50" />
          <path
             d="M30.38 -21.91 L39.99 -17.05 L50.30 -20.17"
             id="path51" />
          <path
             d="M29.25 -4.00 L39.25 -0.00 L49.25 -4.00"
             id="path52" />
          <path
             d="M29.68 13.94 L39.99 17.05 L49.61 12.20"
             id="path53" />
          <path
             d="M31.68 31.84 L42.23 34.05 L51.38 28.38"
             id="path54" />
          <path
             d="M35.25 49.64 L45.94 50.94 L54.58 44.51"
             id="path55" />
          <path
             d="M40.39 67.27 L51.15 67.67 L59.22 60.54"
             id="path56" />
          <path
             d="M47.08 84.67 L57.84 84.18 L65.30 76.41"
             id="path57" />
          <path
             d="M55.34 101.78 L66.03 100.42 L72.83 92.07"
             id="path58" />
          <path
             d="M65.15 118.52 L75.69 116.34 L81.83 107.48"
             id="path59" />
          <path
             d="M76.50 134.84 L86.85 131.87 L92.30 122.58"
             id="path60" />
          <path
             d="M89.39 150.69 L99.49 146.97 L104.25 137.30"
             id="path61" />
        </g>
      </g>
    </g>
    <rect
       style="fill:#e3dedb;fill-rule:evenodd;stroke-width:0.74162"
       id="rect78"
       width="13.474828"
       height="12.351925"
       x="645.4209"
       y="774.02747"
       ry="2.1797514"
       transform="rotate(-29.748542)" />
  </g>
  <g
     inkscape:groupmode="layer"
     id="layer2"
     inkscape:label="Layer 1">
    <path
       style="fill:#ffffff;fill-opacity:1;stroke:#ffffff;stroke-width:2.49766;stroke-linecap:butt;stroke-linejoin:miter;stroke-dasharray:none;stroke-opacity:1;opacity:0.6"
       d="M 1056.2313,476.7823 C 746.00415,151.91509 742.65923,148.67113 742.65923,148.67113 v 0"
       id="path79" />
  </g>
  <metadata
     id="metadata80">
    <rdf:RDF>
      <cc:Work
         rdf:about="">
        <dc:title>Diamond Ratings</dc:title>
      </cc:Work>
    </rdf:RDF>
  </metadata>
</svg>
